IMDB ID                :    www.imdb.com/title/tt0453451/

Format                           : MPEG-4
Format profile                   : Base Media
Codec ID                         : isom
File size                        : 1.00 GiB
Duration                         : 1h 29mn
Overall bit rate                 : 1 600 Kbps
Encoded date                     : UTC 2012-02-16 12:28:40
Tagged date                      : UTC 2012-02-16 12:28:40

Video
ID                               : 1
Format                           : AVC
Format/Info                      : Advanced Video Codec
Format profile                   : High@L4.0
Format settings, CABAC           : Yes
Format settings, ReFrames        : 3 frames
Codec ID                         : avc1
Codec ID/Info                    : Advanced Video Coding
Duration                         : 1h 29mn
Bit rate mode                    : Variable
Bit rate                         : 1 534 Kbps
Maximum bit rate                 : 25.0 Mbps
Width                            : 1 920 pixels
Height                           : 1 040 pixels
Display aspect ratio             : 16:9
Frame rate mode                  : Constant
Frame rate                       : 23.976 fps
Color space                      : YUV
Chroma subsampling               : 4:2:0
Bit depth                        : 8 bits
Scan type                        : Progressive
Bits/(Pixel*Frame)               : 0.032
Stream size                      : 982 MiB (96%)
Title                            : Mr  Bean\'s Holiday (2007) 1080p Ratzz
Encoded date                     : UTC 2012-02-16 12:28:40
Tagged date                      : UTC 2012-02-16 12:29:10

Audio
ID                               : 2
Format                           : AAC
Format/Info                      : Advanced Audio Codec
Format profile                   : HE-AAC / LC
Codec ID                         : 40
Duration                         : 1h 29mn
Bit rate mode                    : Variable
Bit rate                         : 64.0 Kbps
Maximum bit rate                 : 72.2 Kbps
Channel(s)                       : 2 channels
Channel positions                : Front: L R
Sampling rate                    : 48.0 KHz / 24.0 KHz
Compression mode                 : Lossy
Stream size                      : 41.0 MiB (4%)
Language                         : English
Encoded date                     : UTC 2012-02-16 12:29:07
Tagged date                      : UTC 2012-02-16 12:29:10

Subtitles                        :English  .srt file included


if you like my quality then keep seeding and hit quality.